<svg width="49.99999999999999" height="49.99999999999999" xmlns="http://www.w3.org/2000/svg">

 <g>
  <title>background</title>
  <rect fill="none" id="canvas_background" height="402" width="582" y="-1" x="-1"/>
 </g>
 <g>
  <title>Layer 1</title>
  <polygon fill="#11999e" id="svg_10" points="20.79154,19.4463 40.96881,7.91124 40.95106,37.14261 20.77379,48.86836          " class="st1"/>
  <polygon fill="#30e3ca" id="svg_12" points="20.79154,19.4463 20.77379,48.86836 9.03119,42.08876 9.04894,12.85739          " class="st5"/>
  <path fill="#3f3c55" id="svg_15" d="m31.19895,37.79519c0.17247,-0.09958 0.31318,-0.02156 0.31374,0.17662c0.00056,0.19819 -0.13924,0.44032 -0.31171,0.5399c-0.17248,0.09958 -0.31319,0.01939 -0.31375,-0.17879c-0.00056,-0.19819 0.13924,-0.43815 0.31172,-0.53773z" class="st6"/>
  <path fill="#3f3c55" id="svg_17" d="m31.19594,36.73674c0.17248,-0.09958 0.31318,-0.02157 0.31374,0.17661c0.00056,0.19819 -0.13923,0.44033 -0.31171,0.53991c-0.17248,0.09958 -0.31319,0.01939 -0.31375,-0.1788c-0.00055,-0.19818 0.13925,-0.43814 0.31172,-0.53772z" class="st6"/>
  <path fill="#3f3c55" id="svg_19" d="m31.19294,35.67612c0.17248,-0.09958 0.31319,-0.0194 0.31375,0.17879c0.00056,0.19818 -0.13923,0.44033 -0.31171,0.53991c-0.17247,0.09958 -0.31318,0.01939 -0.31375,-0.1788c-0.00057,-0.19819 0.13923,-0.44032 0.31171,-0.5399z" class="st6"/>
  <path fill="#3f3c55" id="svg_21" d="m32.11407,35.14431c0.17247,-0.09958 0.31318,-0.01939 0.31375,0.17879c0.00056,0.19819 -0.13924,0.44033 -0.31171,0.53991c-0.17248,0.09958 -0.31319,0.01939 -0.31375,-0.1788c-0.00057,-0.19819 0.13923,-0.44032 0.31171,-0.5399z" class="st6"/>
  <ellipse fill="#3f3c55" id="svg_23" transform="matrix(0.50246,-0.8646,0.8646,0.50246,-13.80431,44.90194) " ry="0.25534" rx="0.44083" cy="34.44521" cx="32.11208" class="st6"/>
  <path fill="#3f3c55" id="svg_25" d="m32.11707,36.20493c0.17247,-0.09958 0.31318,-0.02157 0.31374,0.17662c0.00056,0.19818 -0.13923,0.44033 -0.31171,0.53991c-0.17247,0.09958 -0.31318,0.01939 -0.31375,-0.1788c-0.00056,-0.1982 0.13925,-0.43815 0.31172,-0.53773z" class="st6"/>
  <path fill="#3f3c55" id="svg_27" d="m32.12307,38.32182c0.17247,-0.09958 0.31319,-0.01939 0.31375,0.1788s-0.13924,0.43814 -0.31171,0.53772c-0.17248,0.09958 -0.31318,0.02157 -0.31374,-0.17662c-0.00057,-0.19818 0.13923,-0.44032 0.3117,-0.5399z" class="st6"/>
  <path fill="#3f3c55" id="svg_29" d="m32.12007,37.26338c0.17248,-0.09958 0.31318,-0.02157 0.31374,0.17662c0.00056,0.19818 -0.13924,0.44032 -0.31171,0.5399c-0.17248,0.09958 -0.31319,0.0194 -0.31375,-0.17879c-0.00056,-0.19819 0.13925,-0.43815 0.31172,-0.53773z" class="st6"/>
  <path fill="#3f3c55" id="svg_31" d="m33.02919,32.49559c0.17247,-0.09958 0.31319,-0.01939 0.31375,0.1788c0.00056,0.19818 -0.13923,0.44032 -0.31171,0.5399c-0.17247,0.09958 -0.31129,0.0183 -0.31186,-0.17988c-0.00056,-0.19819 0.13735,-0.43924 0.30982,-0.53882z" class="st6"/>
  <path fill="#3f3c55" id="svg_33" d="m33.0322,33.55405c0.17247,-0.09958 0.31319,-0.0194 0.31375,0.17879c0.00056,0.19818 -0.13924,0.44032 -0.31171,0.5399c-0.17247,0.09958 -0.31129,0.0183 -0.31186,-0.17988c-0.00056,-0.1982 0.13734,-0.43923 0.30982,-0.53881z" class="st6"/>
  <path fill="#3f3c55" id="svg_35" d="m33.0412,36.73156c0.17248,-0.09958 0.31318,-0.02157 0.31374,0.17662c0.00056,0.19818 -0.13924,0.44032 -0.31171,0.5399s-0.31129,0.0183 -0.31186,-0.17988c-0.00055,-0.19819 0.13736,-0.43706 0.30983,-0.53664z" class="st6"/>
  <path fill="#3f3c55" id="svg_37" d="m33.0382,35.67311c0.17247,-0.09958 0.31318,-0.02157 0.31374,0.17661c0.00056,0.19819 -0.13924,0.44033 -0.31171,0.53991s-0.31129,0.0183 -0.31186,-0.17989c-0.00055,-0.19818 0.13736,-0.43705 0.30983,-0.53663z" class="st6"/>
  <path fill="#3f3c55" id="svg_39" d="m33.03519,34.61249c0.17248,-0.09958 0.31319,-0.01939 0.31375,0.17879c0.00056,0.19819 -0.13924,0.44033 -0.31171,0.53991c-0.17248,0.09958 -0.31129,0.0183 -0.31186,-0.17989c-0.00055,-0.19819 0.13735,-0.43923 0.30982,-0.53881z" class="st6"/>
  <path fill="#3f3c55" id="svg_41" d="m33.0442,37.79001c0.17247,-0.09958 0.31319,-0.01939 0.31375,0.1788c0.00056,0.19818 -0.13924,0.43814 -0.31172,0.53772c-0.17247,0.09958 -0.31129,0.02048 -0.31185,-0.1777c-0.00055,-0.1982 0.13735,-0.43924 0.30982,-0.53882z" class="st6"/>
  <path fill="#3f3c55" id="svg_43" d="m33.04721,38.84846c0.17247,-0.09958 0.31318,-0.01939 0.31375,0.17879c0.00056,0.19819 -0.13924,0.43815 -0.31172,0.53773c-0.17247,0.09958 -0.31129,0.02047 -0.31185,-0.17772c-0.00057,-0.19818 0.13734,-0.43922 0.30982,-0.5388z" class="st6"/>
  <path fill="#3f3c55" id="svg_45" d="m33.95632,34.08068c0.17248,-0.09958 0.31319,-0.01939 0.31375,0.17879c0.00056,0.19819 -0.13924,0.44033 -0.31171,0.53991c-0.17248,0.09958 -0.31129,0.01829 -0.31186,-0.17989c-0.00055,-0.19819 0.13735,-0.43923 0.30982,-0.53881z" class="st6"/>
  <path fill="#3f3c55" id="svg_47" d="m33.95332,33.02223c0.17247,-0.09958 0.31319,-0.01939 0.31375,0.17879c0.00056,0.19819 -0.13924,0.44032 -0.31171,0.5399s-0.31129,0.0183 -0.31185,-0.17989c-0.00056,-0.19818 0.13734,-0.43922 0.30981,-0.5388z" class="st6"/>
  <path fill="#3f3c55" id="svg_49" d="m33.95032,31.96378c0.17247,-0.09958 0.31319,-0.01939 0.31375,0.1788c0.00056,0.19818 -0.13923,0.44032 -0.31171,0.5399c-0.17247,0.09958 -0.31129,0.0183 -0.31185,-0.17989c-0.00056,-0.19818 0.13734,-0.43923 0.30981,-0.53881z" class="st6"/>
  <path fill="#3f3c55" id="svg_51" d="m33.96233,36.19975c0.17248,-0.09958 0.31318,-0.02157 0.31374,0.17662c0.00056,0.19818 -0.13924,0.44032 -0.31171,0.5399c-0.17247,0.09958 -0.31129,0.0183 -0.31185,-0.17989c-0.00056,-0.19818 0.13735,-0.43705 0.30982,-0.53663z" class="st6"/>
  <path fill="#3f3c55" id="svg_53" d="m33.95933,35.1413c0.17247,-0.09958 0.31318,-0.02158 0.31374,0.17661c0.00056,0.19818 -0.13924,0.44033 -0.31171,0.53991s-0.31129,0.0183 -0.31185,-0.17989c-0.00056,-0.19819 0.13734,-0.43705 0.30982,-0.53663z" class="st6"/>
  <path fill="#3f3c55" id="svg_55" d="m33.96533,37.25819c0.17247,-0.09958 0.31319,-0.01939 0.31375,0.1788c0.00056,0.19819 -0.13924,0.43814 -0.31172,0.53772c-0.17247,0.09958 -0.31128,0.02048 -0.31184,-0.17771c-0.00056,-0.19818 0.13734,-0.43923 0.30981,-0.53881z" class="st6"/>
  <path fill="#3f3c55" id="svg_57" d="m33.96833,38.31665c0.17247,-0.09958 0.31318,-0.01939 0.31375,0.17879c0.00056,0.19818 -0.13924,0.43815 -0.31172,0.53773s-0.31128,0.02047 -0.31184,-0.17772c-0.00056,-0.19818 0.13734,-0.43922 0.30981,-0.5388z" class="st6"/>
  <path fill="#3f3c55" id="svg_59" d="m34.87445,32.49042c0.17247,-0.09958 0.31319,-0.01939 0.31375,0.17879c0.00056,0.19818 -0.13924,0.44032 -0.31171,0.5399c-0.17058,0.09848 -0.31129,0.0183 -0.31185,-0.17989c-0.00056,-0.19818 0.13923,-0.44032 0.30981,-0.5388z" class="st6"/>
  <path fill="#3f3c55" id="svg_61" d="m34.87145,31.43196c0.17248,-0.09958 0.31319,-0.01939 0.31375,0.1788c0.00056,0.19819 -0.13923,0.44032 -0.31171,0.5399c-0.17058,0.09848 -0.31129,0.0183 -0.31185,-0.17989c-0.00057,-0.19818 0.13923,-0.44032 0.30981,-0.53881z" class="st6"/>
  <path fill="#3f3c55" id="svg_63" d="m34.87745,33.54887c0.17247,-0.09958 0.31318,-0.0194 0.31375,0.17879c0.00056,0.19818 -0.13924,0.44033 -0.31171,0.53991c-0.17058,0.09848 -0.31129,0.0183 -0.31185,-0.17989c-0.00057,-0.1982 0.13923,-0.44033 0.30981,-0.53881z" class="st6"/>
  <path fill="#3f3c55" id="svg_65" d="m34.88946,37.78484c0.17247,-0.09958 0.31318,-0.0194 0.31375,0.17879c0.00056,0.19818 -0.13924,0.43815 -0.31172,0.53773c-0.17058,0.09848 -0.31128,0.02047 -0.31184,-0.17772c-0.00057,-0.19819 0.13923,-0.44032 0.30981,-0.5388z" class="st6"/>
  <path fill="#3f3c55" id="svg_67" d="m34.88646,36.72638c0.17247,-0.09958 0.31319,-0.01939 0.31375,0.1788c0.00056,0.19818 -0.13924,0.43814 -0.31172,0.53772c-0.17058,0.09848 -0.31128,0.02048 -0.31184,-0.17771c-0.00057,-0.19818 0.13923,-0.44033 0.30981,-0.53881z" class="st6"/>
  <path fill="#3f3c55" id="svg_69" d="m34.88346,35.66793c0.17248,-0.09958 0.31318,-0.02156 0.31374,0.17662c0.00056,0.19819 -0.13924,0.44032 -0.31171,0.5399c-0.17058,0.09848 -0.31129,0.0183 -0.31185,-0.17989c-0.00057,-0.19818 0.13924,-0.43814 0.30982,-0.53663z" class="st6"/>
  <path fill="#3f3c55" id="svg_71" d="m34.88046,34.60949c0.17247,-0.09958 0.31318,-0.02157 0.31374,0.17661c0.00056,0.19819 -0.13924,0.44033 -0.31171,0.53991c-0.17058,0.09848 -0.31129,0.01829 -0.31185,-0.17989c-0.00056,-0.19819 0.13924,-0.43815 0.30982,-0.53663z" class="st6"/>
  <path fill="#3f3c55" id="svg_73" d="m35.79748,31.95751c0.17247,-0.09958 0.31129,-0.0183 0.31185,0.17988c0.00056,0.19819 -0.13734,0.43923 -0.30981,0.53881s-0.31319,0.01939 -0.31375,-0.17879c-0.00057,-0.19819 0.13923,-0.44032 0.31171,-0.5399z" class="st6"/>
  <path fill="#3f3c55" id="svg_76" d="m35.80949,36.19347c0.17247,-0.09958 0.31129,-0.01829 0.31185,0.17989c0.00056,0.19819 -0.13734,0.43705 -0.30982,0.53663c-0.17247,0.09958 -0.31318,0.02157 -0.31374,-0.17661c-0.00056,-0.19819 0.13923,-0.44033 0.31171,-0.53991z" class="st6"/>
  <path fill="#3f3c55" id="svg_78" d="m35.80648,35.13503c0.17247,-0.09958 0.31128,-0.02047 0.31185,0.17772c0.00056,0.19819 -0.13734,0.43923 -0.30981,0.53881s-0.31319,0.01939 -0.31375,-0.17879c-0.00056,-0.1982 0.13924,-0.43817 0.31171,-0.53774z" class="st6"/>
  <path fill="#3f3c55" id="svg_80" d="m35.80349,34.07658c0.17247,-0.09958 0.31128,-0.02048 0.31184,0.17771c0.00056,0.19818 -0.13734,0.43924 -0.30981,0.53881c-0.17247,0.09958 -0.31319,0.01939 -0.31375,-0.1788c-0.00056,-0.19819 0.13924,-0.43814 0.31172,-0.53772z" class="st6"/>
  <path fill="#3f3c55" id="svg_82" d="m35.80048,33.01596c0.17248,-0.09958 0.31129,-0.0183 0.31186,0.17989c0.00056,0.19818 -0.13734,0.43923 -0.30981,0.53881c-0.17248,0.09958 -0.31319,0.01939 -0.31375,-0.1788c-0.00058,-0.19819 0.13922,-0.44033 0.3117,-0.5399z" class="st6"/>
  <path fill="#3f3c55" id="svg_84" d="m36.72462,33.54477c0.17247,-0.09958 0.31128,-0.02048 0.31184,0.17771c0.00056,0.19819 -0.13734,0.43924 -0.30981,0.53881c-0.17248,0.09958 -0.31319,0.01939 -0.31375,-0.17879c-0.00057,-0.1982 0.13924,-0.43816 0.31172,-0.53773z" class="st6"/>
  <path fill="#3f3c55" id="svg_86" d="m36.72161,32.48414c0.17248,-0.09958 0.31129,-0.0183 0.31185,0.17989c0.00056,0.19819 -0.13734,0.43923 -0.30981,0.53881c-0.17248,0.09958 -0.31319,0.01939 -0.31375,-0.17879c-0.00057,-0.19819 0.13923,-0.44033 0.31171,-0.53991z" class="st6"/>
  <path fill="#3f3c55" id="svg_88" d="m36.72762,34.60321c0.17247,-0.09958 0.31128,-0.02047 0.31184,0.17772c0.00056,0.19818 -0.13734,0.43922 -0.30981,0.5388c-0.17248,0.09958 -0.31319,0.01939 -0.31375,-0.17879c-0.00057,-0.19818 0.13924,-0.43815 0.31172,-0.53773z" class="st6"/>
  <path fill="#3f3c55" id="svg_91" d="m19.98927,21.46214l-0.00995,2.97003c0,0.17999 -0.13,0.25995 -0.29004,0.16998l-9.57001,-5.53003c-0.15997,-0.08997 -0.27997,-0.31 -0.27997,-0.48999l0,-2.97998c0,-0.17999 0.13,-0.26001 0.28998,-0.16998l9.58002,5.52997c0.14996,0.09002 0.27997,0.30999 0.27997,0.5z" class="st6"/>
  <path fill="#3f3c55" id="svg_92" d="m19.68928,27.11216c0.15002,0.08997 0.28003,0.31 0.28003,0.48999l-0.01001,2.97998c0,0.17999 -0.13,0.26001 -0.28003,0.16998l-9.57996,-5.52997c-0.16003,-0.09003 -0.28003,-0.32001 -0.28003,-0.5l0.01001,-2.97003c0,-0.19 0.12,-0.25995 0.27997,-0.16998l9.58002,5.53003z" class="st6"/>
  <polygon fill="#11999e" id="svg_94" points="19.60232,21.52591 19.59508,24.07889 10.22158,18.6671 10.22882,16.11411       " class="st1"/>
  <polygon fill="#11999e" id="svg_97" points="19.58489,27.67352 19.57764,30.22868 10.20414,24.81688 10.21139,22.26173        " class="st1"/>
  <path fill="#3f3c55" id="svg_99" d="m19.92085,25.20983c0.03106,0.01793 0.05738,0.06351 0.05727,0.10099l-0.00172,0.60673c-0.00011,0.03747 -0.0266,0.05257 -0.05765,0.03464l-1.86512,-1.07683c-0.03262,-0.01883 -0.05893,-0.06441 -0.05882,-0.10188l0.00172,-0.60673c0.0001,-0.03747 0.02659,-0.05257 0.05921,-0.03374l1.86511,1.07682z" class="st6"/>
  <path fill="#3f3c55" id="svg_101" d="m19.92085,31.35853c0.03106,0.01793 0.05738,0.06351 0.05727,0.10099l-0.00172,0.60673c-0.00011,0.03748 -0.0266,0.05257 -0.05765,0.03464l-1.86512,-1.07683c-0.03262,-0.01883 -0.05893,-0.06441 -0.05882,-0.10188l0.00172,-0.60673c0.0001,-0.03747 0.02659,-0.05257 0.05921,-0.03374l1.86511,1.07682z" class="st6"/>
  <path fill="#3f3c55" id="svg_103" d="m14.34465,33.41287c0.8331,0.48099 1.50779,1.64499 1.50507,2.60689c-0.00271,0.95728 -0.6818,1.33969 -1.51489,0.8587c-0.8331,-0.48099 -1.50379,-1.64269 -1.50108,-2.59998c0.00272,-0.96189 0.67779,-1.3466 1.5109,-0.86561z" class="st6"/>
  <path fill="#3f3c55" id="svg_104" d="m14.33156,38.02906c0.46862,0.27056 0.84788,0.92745 0.84635,1.46593c-0.00153,0.53848 -0.38325,0.75142 -0.85187,0.48086c-0.46862,-0.27056 -0.84389,-0.92054 -0.84236,-1.45902s0.37926,-0.75833 0.84788,-0.48777z" class="st6"/>
  <path fill="#e4f9f5" id="svg_107" d="m14.91701,34.74839c0.03519,0.02032 0.07055,0.05636 0.09763,0.10326c0.3676,0.63671 0.36565,1.32726 -0.00437,1.54001c-0.18665,0.10448 -0.42898,0.07069 -0.67101,-0.06905c-0.24367,-0.14069 -0.4854,-0.38637 -0.6692,-0.70472c-0.36924,-0.63956 -0.36729,-1.33011 0.00437,-1.54001c0.02643,-0.01601 0.06146,-0.01141 0.09645,0.00879c0.03499,0.0202 0.06993,0.05601 0.09619,0.10243c0.05416,0.09191 0.05388,0.19218 -0.00063,0.22325c-0.26264,0.14967 -0.26403,0.63967 -0.0031,1.09352c0.13129,0.22645 0.30354,0.40123 0.47601,0.5008c0.17247,0.09958 0.34515,0.12394 0.47729,0.04959c0.26264,-0.15156 0.26403,-0.64156 0.0031,-1.09352c-0.05416,-0.0938 -0.05387,-0.19408 0.00063,-0.22325c0.02641,-0.01601 0.06144,-0.01142 0.09664,0.0089z" class="st2"/>
  <path fill="#e4f9f5" id="svg_109" d="m14.34606,33.85825c0.07574,0.04373 0.13646,0.1489 0.13621,0.23593l-0.00423,1.25191c-0.00025,0.08703 -0.06137,0.12185 -0.1371,0.07813c-0.07573,-0.04373 -0.1381,-0.14985 -0.13786,-0.23687l0.00423,-1.2519c0.00025,-0.08705 0.06301,-0.12093 0.13875,-0.0772z" class="st2"/>
  <polygon fill="#11999e" id="svg_111" points="10.21786,39.23776 10.21126,42.77007 19.29585,48.01507 19.30246,44.48277      " class="st1"/>
  <path fill="#3f3c55" id="svg_114" d="m40.14274,19.63698l-2.52697,2.47782l0.01719,6.064l2.53273,-0.44586l-2.80716,1.62071c-0.13225,0.07636 -0.23712,0.01415 -0.23755,-0.13537l-0.02141,-7.55181c-0.00043,-0.14951 0.10375,-0.33242 0.236,-0.40877l2.80717,-1.62072z" class="st17"/>
  <polygon fill="#30e3ca" id="svg_116" points="40.14274,19.63698 40.1657,27.73293 37.63297,28.1788 37.61578,22.1148      " class="st5"/>
  <polygon fill="#30e3ca" id="svg_118" points="9.04894,12.85739 29.22621,1.13164 40.96881,7.91124 20.79154,19.63698   " class="st0"/>
 </g>
</svg>