<svg width="49.99999999999999" height="49.99999999999999" xmlns="http://www.w3.org/2000/svg">

 <g>
  <title>background</title>
  <rect fill="none" id="canvas_background" height="402" width="582" y="-1" x="-1"/>
 </g>
 <g>
  <title>Layer 1</title>
  <path fill="#30e3ca" id="svg_3" d="m40.92025,1.0683c-0.18382,-0.10684 -0.4383,-0.09191 -0.71893,0.07011l-31.78563,18.35145c-0.55993,0.32328 -1.01141,1.10526 -1.00958,1.74605l0.05425,26.27869c0.00089,0.31801 0.11328,0.54198 0.29469,0.64742l1.32443,0.76966c-0.18143,-0.10542 -0.29379,-0.32939 -0.29471,-0.64742l-0.05426,-26.27869c-0.00181,-0.64079 0.44968,-1.42277 1.00961,-1.74605l31.78563,-18.35145c0.28063,-0.16202 0.53511,-0.17692 0.71893,-0.07011l-1.32443,-0.76966z" class="st0"/>
  <path fill="#11999e" id="svg_5" d="m41.52575,1.90808c0.55766,-0.32196 1.01209,-0.063 1.0139,0.57779l0.05424,26.27869c0.00182,0.6408 -0.44967,1.42278 -1.00732,1.74475l-31.78563,18.35144c-0.55993,0.32328 -1.01436,0.06432 -1.01618,-0.57648l-0.05424,-26.27869c-0.00182,-0.6408 0.44966,-1.42278 1.00959,-1.74606l31.78564,-18.35144z" class="st1"/>
  <polygon fill="#ffffff" id="svg_8" points="41.28501,5.69294 41.32981,29.2036 10.04949,47.2633 10.00468,23.75265     " class="st2"/>
  <path fill="#ffffff" id="svg_11" d="m37.43862,5.67588c0.2864,-0.16535 0.51958,-0.03247 0.52052,0.29663c0.00093,0.32909 -0.23074,0.72863 -0.51714,0.89399c-0.2849,0.16449 -0.51808,0.03333 -0.51901,-0.29577c-0.00094,-0.3291 0.23073,-0.73036 0.51563,-0.89485z" class="st2"/>
  <path fill="#ffffff" id="svg_13" d="m40.76449,3.75607c0.2864,-0.16535 0.51958,-0.03247 0.52051,0.29663c0.00093,0.3291 -0.23074,0.72864 -0.51714,0.89399c-0.2849,0.16449 -0.51808,0.03333 -0.51901,-0.29577c-0.00093,-0.3291 0.23074,-0.73036 0.51564,-0.89485z" class="st2"/>
  <path fill="#ffffff" id="svg_15" d="m39.10155,4.71578c0.2864,-0.16535 0.51958,-0.03247 0.52052,0.29663c0.00093,0.3291 -0.23074,0.72864 -0.51714,0.89399c-0.2864,0.16536 -0.51808,0.03333 -0.51901,-0.29577c-0.00093,-0.32909 0.22923,-0.72949 0.51563,-0.89485z" class="st2"/>
  <path fill="#3f3c55" id="svg_19" d="m16.17335,26.35378l3.16917,-0.45514c-0.47799,1.74807 -1.70967,3.50637 -3.15815,4.34265l-0.01102,-3.88751z" class="st3"/>
  <path fill="#3f3c55" id="svg_21" d="m18.83965,22.43209c0.44771,0.39862 0.71431,1.07131 0.71686,1.96842c0.00137,0.48449 -0.07598,0.99122 -0.21398,1.49813l-3.16917,0.45514l2.66629,-3.92169z" class="st4"/>
  <path fill="#e4f9f5" id="svg_23" d="m13.00417,26.80893l3.16918,-0.45515l0.01102,3.88751c-1.86811,1.07856 -3.3881,0.21235 -3.39419,-1.93424c-0.00136,-0.48217 0.07398,-0.99006 0.21399,-1.49812z" class="st5"/>
  <path fill="#30e3ca" id="svg_25" d="m16.16233,22.46627l0.01102,3.88751l-3.16918,0.45515c0.47799,-1.74808 1.70966,-3.50637 3.15816,-4.34266z" class="st6"/>
  <path fill="#11999e" id="svg_27" d="m16.16233,22.46627c1.08738,-0.6278 2.05739,-0.59574 2.67732,-0.03418l-2.6663,3.92168l-0.01102,-3.8875z" class="st7"/>
  <path fill="#30e3ca" id="svg_29" d="m25.25067,17.21911l0.00436,1.53692c-0.87555,0.5055 -1.62019,1.56931 -1.91019,2.62604l-1.25231,0.17969c0.47798,-1.74807 1.71167,-3.50753 3.15814,-4.34265z" class="st6"/>
  <path fill="#11999e" id="svg_31" d="m25.25067,17.21911c1.08939,-0.62896 2.0574,-0.59575 2.67934,-0.03534l-1.05445,1.54917c-0.37681,-0.33739 -0.96286,-0.35661 -1.62053,0.0231l-0.00436,-1.53693z" class="st7"/>
  <path fill="#3f3c55" id="svg_33" d="m27.17855,20.83117l1.25231,-0.17969c-0.47799,1.74807 -1.70967,3.50637 -3.15815,4.34265l-0.00436,-1.53692c0.87555,-0.50549 1.6202,-1.5693 1.9102,-2.62604z" class="st3"/>
  <path fill="#3f3c55" id="svg_35" d="m27.93001,17.18377c0.44568,0.39979 0.7123,1.07247 0.71485,1.96958c0.00137,0.48449 -0.07399,0.99007 -0.214,1.49813l-1.25231,0.17969c0.084,-0.30623 0.1296,-0.61351 0.12877,-0.9056c-0.00154,-0.54244 -0.16232,-0.94883 -0.43176,-1.19264l1.05445,-1.54916z" class="st4"/>
  <path fill="#e4f9f5" id="svg_37" d="m22.09252,21.56176l1.25231,-0.17969c-0.084,0.30623 -0.1296,0.61351 -0.12877,0.9056c0.00368,1.29816 0.92256,1.8218 2.05229,1.16955l0.00436,1.53692c-1.8681,1.07855 -3.3881,0.21235 -3.39419,-1.93424c-0.00136,-0.48218 0.076,-0.99123 0.214,-1.49814z" class="st5"/>
  <path fill="#11999e" id="svg_39" d="m34.46854,12.04577c0.91601,-0.48706 1.77681,-0.49876 2.37019,-0.03099l-0.85522,1.25767c-0.3888,-0.28867 -0.92426,-0.28137 -1.51143,0.02048l-0.00354,-1.24716z" class="st7"/>
  <path fill="#3f3c55" id="svg_41" d="m36.99472,12.15691c0.39923,0.40571 0.61118,1.03565 0.6134,1.8215c0.00114,0.40336 -0.05422,0.83469 -0.16409,1.28124l-1.016,0.14543c0.06388,-0.27836 0.09747,-0.54852 0.09675,-0.8012c-0.00144,-0.50767 -0.13396,-0.91877 -0.38528,-1.18929l0.85522,-1.25768z" class="st4"/>
  <path fill="#30e3ca" id="svg_43" d="m34.21435,12.19253l0.00354,1.24716c-0.80479,0.51805 -1.5274,1.51109 -1.85384,2.54706l-1.01599,0.14773c0.48846,-1.61944 1.60559,-3.15603 2.86629,-3.94195z" class="st6"/>
  <path fill="#e4f9f5" id="svg_45" d="m31.25805,16.46044l1.01598,-0.14773c-0.06387,0.27835 -0.09745,0.54852 -0.09674,0.80119c0.00377,1.32829 0.90459,1.89719 2.05472,1.30978l0.00354,1.24716c-1.72912,0.92168 -3.13392,0.06095 -3.13957,-1.93265c-0.00114,-0.40335 0.0522,-0.83352 0.16207,-1.27775z" class="st5"/>
  <path fill="#3f3c55" id="svg_47" d="m36.33802,15.7287l1.01802,-0.14658c-0.48845,1.61944 -1.6076,3.1572 -2.8663,3.94196l-0.00354,-1.24716c0.80479,-0.52037 1.52539,-1.51224 1.85182,-2.54822z" class="st3"/>
  <polygon fill="#11999e" id="svg_51" points="16.68677,37.75036 16.69865,40.78558 15.65133,41.39025 15.63945,38.35503     " class="st7"/>
  <polygon fill="#3f3c55" id="svg_53" points="17.72712,35.38117 17.74597,40.18091 16.69865,40.78558 16.6798,35.98584     " class="st4"/>
  <polygon fill="#11999e" id="svg_55" points="20.38162,37.70696 20.39001,38.65437 19.34271,39.25903 19.33432,38.31162    " class="st7"/>
  <polygon fill="#3f3c55" id="svg_57" points="21.42197,36.03276 21.43733,38.0497 20.39001,38.65437 20.37465,36.63743    " class="st4"/>
  <polygon fill="#3f3c55" id="svg_59" points="25.09939,28.97595 25.12872,35.91848 24.0814,36.52315 24.05207,29.58062    " class="st4"/>
  <polygon fill="#11999e" id="svg_61" points="24.05904,32.04013 24.0814,36.52315 23.03408,37.12782 23.01172,32.6448    " class="st7"/>
  <polygon fill="#11999e" id="svg_64" points="27.7574,32.53809 27.77276,34.39194 26.72544,34.99661 26.71008,33.14276     " class="st7"/>
  <polygon fill="#3f3c55" id="svg_66" points="28.79773,30.85731 28.82008,33.78727 27.77276,34.39194 27.75041,31.46198     " class="st4"/>
  <polygon fill="#3f3c55" id="svg_68" points="30.16275,33.01521 30.16275,33.10556 13.90005,42.49486 13.90005,41.9597 13.60813,42.13345      13.60813,42.03614 13.90005,41.86935 13.90005,41.34115 13.60813,41.5149 13.60813,41.41068 13.90005,41.24389      13.90005,40.71569 13.60813,40.88248 13.60813,40.79213 13.90005,40.62534 13.90005,40.09018 13.60813,40.25697      13.60813,40.15971 13.90005,39.98596 13.8931,39.46472 13.60117,39.63847 13.60117,39.5342 13.8931,39.36045 13.8931,38.83921      13.60117,39.01296 13.60117,38.9087 13.8931,38.74191 13.8931,38.21371 13.60117,38.37358 13.60117,38.29019 13.8931,38.11644      13.8931,37.5952 13.60117,37.75503 13.60117,37.65772 13.8931,37.48398 13.8931,36.96273 13.60117,37.12953 13.60117,37.0253      13.8931,36.86543 13.88614,36.33031 13.59426,36.50406 13.59426,36.3998 13.88614,36.23996 13.88614,35.70481 13.59426,35.8716      13.59426,35.78125 13.88614,35.61446 13.88614,35.08626 13.59426,35.25309 13.59426,35.14883 13.88614,34.97508      13.88614,34.45384 13.59426,34.62759 13.59426,34.53028 13.97649,34.30788 13.99732,42.34889    " class="st9"/>
  <polygon fill="#30e3ca" id="svg_71" points="39.28428,24.99655 39.2865,25.78168 32.56761,29.66084 32.56538,28.8757    " class="st1"/>
  <polygon fill="#e4f9f5" id="svg_73" points="35.59944,28.83445 35.60165,29.61305 32.57243,31.36197 32.57022,30.58337    " class="st1"/>
  <polygon fill="#e4f9f5" id="svg_75" points="37.43463,24.36052 37.43686,25.14566 32.56279,27.9597 32.56056,27.17457    " class="st1"/>
  <polygon fill="#30e3ca" id="svg_77" points="39.27463,21.59428 39.27686,22.37942 32.55796,26.25857 32.55574,25.47343    " class="st1"/>
 </g>
</svg>