<svg width="32" height="32" xmlns="http://www.w3.org/2000/svg">

 <g>
  <title>background</title>
  <rect fill="none" id="canvas_background" height="402" width="582" y="-1" x="-1"/>
 </g>
 <g>
  <title>Layer 1</title>
  <path id="svg_1" fill-rule="evenodd" fill="#11999e" d="m21.951,1.15c-8.202,-3.284 -17.515,0.702 -20.8,8.905c-3.286,8.204 0.702,17.518 8.905,20.802c8.203,3.285 17.516,-0.702 20.801,-8.905c3.286,-8.204 -0.703,-17.516 -8.906,-20.802zm-11.151,27.851c-7.166,-2.87 -10.662,-11.034 -7.793,-18.201c2.87,-7.166 11.035,-10.663 18.202,-7.792c7.166,2.869 10.662,11.034 7.793,18.2c-2.871,7.167 -11.035,10.662 -18.202,7.793z" clip-rule="evenodd"/>
  <path id="svg_2" fill-rule="evenodd" fill="#11999e" d="m16.701384,14.147c-1.025,-0.411 -2.19,0.088 -2.601,1.113s0.088,2.189 1.112,2.6c1.025,0.411 2.191,-0.088 2.601,-1.112c0.41,-1.025 -0.088,-2.189 -1.112,-2.601zm-1.117,2.786c-0.512,-0.206 -0.761,-0.788 -0.557,-1.301c0.206,-0.512 0.789,-0.761 1.301,-0.557c0.511,0.205 0.76,0.788 0.556,1.301c-0.205,0.512 -0.788,0.761 -1.3,0.557z" clip-rule="evenodd"/>
  <path id="svg_3" fill-rule="evenodd" fill="#11999e" d="m18.186384,10.435c-3.076,-1.232 -6.568,0.264 -7.8,3.339c-1.232,3.076 0.264,6.568 3.339,7.8c3.076,1.232 6.568,-0.263 7.8,-3.339s-0.262,-6.569 -3.339,-7.8zm-3.716,9.282c-2.048,-0.819 -3.046,-3.153 -2.227,-5.2c0.82,-2.047 3.152,-3.046 5.199,-2.227c2.049,0.82 3.047,3.154 2.229,5.201c-0.821,2.047 -3.154,3.047 -5.201,2.226z" clip-rule="evenodd"/>
  <path id="svg_4" fill-rule="evenodd" fill="#11999e" d="m23.384384,18.978c0.102,-0.256 -0.023,-0.547 -0.279,-0.649c-0.256,-0.104 -0.547,0.021 -0.65,0.278l0,-0.001c-0.719,1.796 -2.098,3.129 -3.744,3.834c-0.252,0.108 -0.371,0.402 -0.262,0.655c0.109,0.255 0.402,0.372 0.656,0.264c0.01,-0.004 0.014,-0.012 0.021,-0.015c1.873,-0.81 3.439,-2.327 4.256,-4.366l0.002,0z" clip-rule="evenodd"/>
  <path id="svg_5" fill-rule="evenodd" fill="#11999e" d="m26.865,19.814c-0.256,-0.103 -0.547,0.022 -0.65,0.278c-1.129,2.82 -3.295,4.915 -5.883,6.023c-0.252,0.108 -0.371,0.402 -0.262,0.656c0.109,0.255 0.402,0.371 0.656,0.263c0.012,-0.006 0.021,-0.017 0.033,-0.022c2.809,-1.213 5.16,-3.49 6.385,-6.548c0.102,-0.256 -0.023,-0.547 -0.279,-0.65z" clip-rule="evenodd"/>
  <path id="svg_6" fill-rule="evenodd" fill="#11999e" d="m25.008,19.071c-0.256,-0.103 -0.547,0.021 -0.65,0.278c-0.922,2.308 -2.693,4.021 -4.812,4.928l0.002,0c-0.254,0.109 -0.373,0.403 -0.264,0.657s0.402,0.371 0.656,0.263c0.01,-0.005 0.016,-0.014 0.027,-0.02c2.34,-1.011 4.299,-2.907 5.32,-5.456c0.102,-0.256 -0.023,-0.547 -0.279,-0.65z" clip-rule="evenodd"/>
  <path id="svg_7" fill-rule="evenodd" fill="#11999e" d="m13.513,8.912c-0.109,-0.255 -0.403,-0.371 -0.657,-0.262c-0.009,0.003 -0.014,0.011 -0.021,0.014c-1.873,0.81 -3.44,2.328 -4.256,4.366l-0.001,0c-0.103,0.257 0.022,0.547 0.278,0.65c0.257,0.103 0.548,-0.022 0.65,-0.278l0.001,0c0.718,-1.794 2.097,-3.128 3.743,-3.832c0.254,-0.11 0.372,-0.403 0.263,-0.658z" clip-rule="evenodd"/>
  <path id="svg_8" fill-rule="evenodd" fill="#11999e" d="m11.938,5.235c-0.109,-0.254 -0.403,-0.371 -0.657,-0.263c-0.012,0.005 -0.021,0.016 -0.031,0.021c-2.81,1.214 -5.16,3.49 -6.385,6.548c-0.104,0.258 0.021,0.549 0.278,0.651c0.256,0.103 0.547,-0.021 0.65,-0.278c1.13,-2.819 3.295,-4.914 5.883,-6.022c0.253,-0.11 0.371,-0.403 0.262,-0.657z" clip-rule="evenodd"/>
  <path id="svg_9" fill-rule="evenodd" fill="#11999e" d="m12.463,7.729c0.253,-0.108 0.372,-0.401 0.263,-0.656c-0.109,-0.253 -0.403,-0.371 -0.657,-0.262c-0.01,0.004 -0.016,0.014 -0.026,0.018c-2.341,1.012 -4.3,2.91 -5.32,5.458c-0.104,0.257 0.022,0.547 0.277,0.651c0.256,0.102 0.547,-0.021 0.65,-0.278c0.923,-2.308 2.695,-4.022 4.812,-4.928l0,-0.003l0.001,0z" clip-rule="evenodd"/>
 </g>
</svg>