<svg width="64" height="64" xmlns="http://www.w3.org/2000/svg">

 <g>
  <title>background</title>
  <rect fill="none" id="canvas_background" height="402" width="582" y="-1" x="-1"/>
 </g>
 <g>
  <title>Layer 1</title>
  <circle id="svg_3" stroke-width="2" stroke-miterlimit="10" stroke-linejoin="round" stroke-linecap="round" stroke="#11999e" r="3.2" fill="none" cy="32" cx="32"/>
  <path id="svg_2" stroke-width="2" stroke-miterlimit="10" stroke-linejoin="round" stroke-linecap="round" stroke="#11999e" fill="none" d="m52,54c0,1.1 -0.9,2 -2,2l-36,0c-1.1,0 -2,-0.9 -2,-2l0,-44c0,-1.1 0.9,-2 2,-2l36,0c1.1,0 2,0.9 2,2l0,44z"/>
  <circle id="svg_4" stroke-miterlimit="10" stroke-linejoin="round" stroke-linecap="round" stroke="#11999e" r="1.3" fill="none" cy="12.5" cx="47.398863"/>
  <circle id="svg_5" stroke-miterlimit="10" stroke-linejoin="round" stroke-linecap="round" stroke="#11999e" r="1.3" fill="none" cy="12.5" cx="16.398863"/>
  <circle id="svg_6" stroke-miterlimit="10" stroke-linejoin="round" stroke-linecap="round" stroke="#11999e" r="1.3" fill="none" cy="51.5" cx="47.398863"/>
  <circle id="svg_7" stroke-miterlimit="10" stroke-linejoin="round" stroke-linecap="round" stroke="#11999e" r="1.3" fill="none" cy="51.5" cx="16.398863"/>
  <path id="svg_8" stroke-width="2" stroke-miterlimit="10" stroke-linejoin="round" stroke-linecap="round" stroke="#11999e" fill="none" d="m41.89886,40.8c2.1,-2.3 3.3,-5.4 3.3,-8.8c0,-7.4 -6,-13.3 -13.3,-13.3s-13.3,6 -13.3,13.3s6,13.3 13.3,13.3c1.5,0 2.9,-0.2 4.2,-0.7"/>
  <path id="svg_9" stroke-miterlimit="10" stroke-linejoin="round" stroke-linecap="round" stroke="#11999e" fill="none" d="m39.89886,48c-0.7,-1 -5.2,-11.3 -5.2,-11.3s8.2,7.7 8.9,8.7c0.7,1 0.5,2.4 -0.6,3.1c-1,0.8 -2.4,0.5 -3.1,-0.5z"/>
  <line id="svg_10" y2="12.5" y1="12.5" x2="40.7" x1="24.3" stroke-miterlimit="10" stroke-linejoin="round" stroke-linecap="round" stroke="#11999e" fill="none"/>
 </g>
</svg>