<svg width="32" height="32" xmlns="http://www.w3.org/2000/svg">

 <g>
  <title>background</title>
  <rect fill="none" id="canvas_background" height="402" width="582" y="-1" x="-1"/>
 </g>
 <g>
  <title>Layer 1</title>
  <path id="svg_2" fill="#3f3c55" d="m27,24c-0.5527,0 -1,-0.4478 -1,-1l0,-3c0,-0.5522 0.4473,-1 1,-1s1,0.4478 1,1l0,3c0,0.5522 -0.4473,1 -1,1z"/>
  <path id="svg_4" fill="#3f3c55" d="m23,24c-0.5527,0 -1,-0.4478 -1,-1l0,-3c0,-0.5522 0.4473,-1 1,-1s1,0.4478 1,1l0,3c0,0.5522 -0.4473,1 -1,1z"/>
  <path id="svg_6" fill="#3f3c55" d="m19,24c-0.5527,0 -1,-0.4478 -1,-1l0,-3c0,-0.5522 0.4473,-1 1,-1s1,0.4478 1,1l0,3c0,0.5522 -0.4473,1 -1,1z"/>
  <path id="svg_8" fill="#3f3c55" d="m14.952385,24c-0.5527,0 -1,-0.4478 -1,-1l0,-3c0,-0.5522 0.4473,-1 1,-1s1,0.4478 1,1l0,3c0,0.5522 -0.4473,1 -1,1z"/>
  <path id="svg_10" fill="#3f3c55" d="m9,24c-0.5527,0 -1,-0.4478 -1,-1l0,-3c0,-0.5522 0.4473,-1 1,-1s1,0.4478 1,1l0,3c0,0.5522 -0.4473,1 -1,1z"/>
  <path id="svg_12" fill="#3f3c55" d="m5,24c-0.5527,0 -1,-0.4478 -1,-1l0,-3c0,-0.5522 0.4473,-1 1,-1s1,0.4478 1,1l0,3c0,0.5522 -0.4473,1 -1,1z"/>
  <path id="svg_14" fill="#11999e" d="m29,14c0,0.55 0.45,1 1,1s1,0.45 1,1l0,4c0,0.55 -0.45,1 -1,1l-28,0c-0.55,0 -1,-0.45 -1,-1l0,-4c0,-0.55 0.45,-1 1,-1s1,-0.45 1,-1s-0.45,-1 -1,-1s-1,-0.45 -1,-1l0,-3c0,-0.55 0.45,-1 1,-1l28,0c0.55,0 1,0.45 1,1l0,3c0,0.55 -0.45,1 -1,1s-1,0.45 -1,1z"/>
  <path id="svg_16" fill="#3f3c55" d="m12,12l0,5c0,0.55 -0.45,1 -1,1l-4,0c-0.55,0 -1,-0.45 -1,-1l0,-5c0,-0.55 0.45,-1 1,-1l4,0c0.55,0 1,0.45 1,1z"/>
  <path id="svg_18" fill="#3f3c55" d="m26,12l0,5c0,0.55 -0.45,1 -1,1l-11,0c-0.55,0 -1,-0.45 -1,-1l0,-5c0,-0.55 0.45,-1 1,-1l11,0c0.55,0 1,0.45 1,1z"/>
 </g>
</svg>