<svg width="128" height="128" xmlns="http://www.w3.org/2000/svg">

 <g>
  <title>background</title>
  <rect fill="none" id="canvas_background" height="402" width="582" y="-1" x="-1"/>
 </g>
 <g>
  <title>Layer 1</title>
  <path fill="#3f3c55" clip-rule="evenodd" fill-rule="evenodd" id="XMLID_6_" d="m54.3,72.2l-16,0c-1.7,0 -3.1,-1 -3.7,-2.6c-0.6,-1.6 -0.2,-3.3 1,-4.4l70.3,-64.2c1.5,-1.3 3.7,-1.4 5.2,-0.1c1.5,1.3 1.9,3.4 0.9,5.1l-27,45.2l16,0c1.7,0 3.1,1 3.7,2.5c0.6,1.5 0.3,3.2 -0.9,4.4l-71.8,68.8c-1.4,1.4 -3.7,1.5 -5.2,0.3c-1.6,-1.2 -2,-3.4 -1,-5.1l28.5,-49.9l0,0zm3.5,2l-28.7,49.8l71.9,-68.8l-15.9,0c-1.5,0 -2.7,-0.7 -3.5,-2c-0.7,-1.3 -0.7,-2.8 0,-4l27,-45.2l-70.3,64.2l16,0c1.5,0 2.7,0.7 3.5,2c0.7,1.3 0.7,2.7 0,4z" class="st0"/>
  <path fill="#11999e" clip-rule="evenodd" fill-rule="evenodd" id="XMLID_1_" d="m57.8,74.2l-28.7,49.8l71.9,-68.8l-15.9,0c-1.5,0 -2.7,-0.7 -3.5,-2c-0.7,-1.3 -0.7,-2.8 0,-4l27,-45.2l-70.3,64.2l16,0c1.5,0 2.7,0.7 3.5,2c0.7,1.3 0.7,2.7 0,4z" class="st1"/>
 </g>
</svg>