<svg width="50" height="50" xmlns="http://www.w3.org/2000/svg" xmlns:xlink="http://www.w3.org/1999/xlink">
 <defs>
  <pattern y="-70" x="-70" width="32.25219" viewBox="0 -32.25219 32.25219 32.25219" patternUnits="userSpaceOnUse" id="Unnamed_Pattern_12" height="32.25219">
   <g id="svg_1">
    <rect fill="none" id="svg_2" y="-32.25219" width="32.25219" height="32.25219" class="st0"/>
    <g id="svg_3">
     <rect fill="#b7c5fd" id="svg_4" y="-32.25219" x="0" width="32.25219" height="32.25219" class="st1"/>
    </g>
   </g>
  </pattern>
  <pattern xlink:href="#Unnamed_Pattern_12" patternTransform="matrix(0.02845 0 0 0.02845 -7776.48633 -7663.5166)" id="SVGID_1_"/>
  <pattern xlink:href="#Unnamed_Pattern_12" patternTransform="matrix(0.02845 0 0 0.02845 -7776.48633 -7663.5166)" id="SVGID_2_"/>
  <pattern xlink:href="#Unnamed_Pattern_12" patternTransform="matrix(0.02845 0 0 0.02845 -7776.48633 -7663.5166)" id="SVGID_3_"/>
  <pattern xlink:href="#Unnamed_Pattern_12" patternTransform="matrix(0.02845 0 0 0.02845 -7775.02979 -7651.36377)" id="SVGID_4_"/>
  <pattern xlink:href="#Unnamed_Pattern_12" patternTransform="matrix(0.02845 0 0 0.02845 -7776.48633 -7659.6001)" id="SVGID_5_"/>
  <pattern xlink:href="#Unnamed_Pattern_12" patternTransform="matrix(0.02845 0 0 0.02845 -7776.48633 -7659.6001)" id="SVGID_6_"/>
  <pattern xlink:href="#Unnamed_Pattern_12" patternTransform="matrix(0.02845 0 0 0.02845 -7776.48633 -7659.6001)" id="SVGID_7_"/>
  <pattern xlink:href="#Unnamed_Pattern_12" patternTransform="matrix(0.02845 0 0 0.02845 -7775.02979 -7647.44727)" id="SVGID_8_"/>
  <pattern xlink:href="#Unnamed_Pattern_12" patternTransform="matrix(0.02845 0 0 0.02845 -7776.48633 -7655.68359)" id="SVGID_9_"/>
  <pattern xlink:href="#Unnamed_Pattern_12" patternTransform="matrix(0.02845 0 0 0.02845 -7776.48633 -7655.68359)" id="SVGID_10_"/>
  <pattern xlink:href="#Unnamed_Pattern_12" patternTransform="matrix(0.02845 0 0 0.02845 -7776.48633 -7655.68359)" id="SVGID_11_"/>
  <pattern xlink:href="#Unnamed_Pattern_12" patternTransform="matrix(0.02845 0 0 0.02845 -7775.02979 -7643.53125)" id="SVGID_12_"/>
  <pattern xlink:href="#Unnamed_Pattern_12" patternTransform="matrix(0.02845 0 0 0.02845 -7776.48633 -7651.76758)" id="SVGID_13_"/>
  <pattern xlink:href="#Unnamed_Pattern_12" patternTransform="matrix(0.02845 0 0 0.02845 -7776.48633 -7651.76758)" id="SVGID_14_"/>
  <pattern xlink:href="#Unnamed_Pattern_12" patternTransform="matrix(0.02845 0 0 0.02845 -7776.48633 -7651.76758)" id="SVGID_15_"/>
  <pattern xlink:href="#Unnamed_Pattern_12" patternTransform="matrix(0.02845 0 0 0.02845 -7775.02979 -7639.61475)" id="SVGID_16_"/>
 </defs>
 <g>
  <title>background</title>
  <rect fill="none" id="canvas_background" height="402" width="582" y="-1" x="-1"/>
 </g>
 <g>
  <title>Layer 1</title>
  <path fill="#11999e" id="svg_10" d="m47.90341,38.394165l-13.65167,7.93348c-0.32263,0.1882 -0.84242,0.1882 -1.16505,0.00299l-23.13061,-13.35619c-0.32263,-0.18521 -0.32263,-0.48693 0,-0.67513l13.65167,-7.93347c0.31964,-0.18521 0.83943,-0.18521 1.16206,0l23.13061,13.3532c0.32264,0.18821 0.32563,0.48991 0.00299,0.67512z" class="st19"/>
  <path fill="#e4f9f5" id="svg_12" d="m27.76556,36.65399c0.18389,0.10617 0.18281,0.27914 0.00011,0.38532l-3.79351,2.20454c-0.1827,0.10617 -0.48132,0.10737 -0.66521,0.0012l-7.47549,-4.31598c-0.18389,-0.10617 -0.1828,-0.27914 -0.00011,-0.38531l3.79351,-2.20455c0.1827,-0.10617 0.48132,-0.10736 0.66521,-0.0012l7.47549,4.31598z" class="st20"/>
  <path fill="#3f3c55" id="svg_14" d="m48.1424,38.134l-0.00299,1.21882c0,0.1195 -0.08065,0.24197 -0.23898,0.33458l-13.65167,7.93348c-0.32263,0.18521 -0.84242,0.18521 -1.16505,0l-23.13062,-13.35321c-0.16131,-0.09261 -0.24197,-0.21508 -0.24197,-0.34055l0.00299,-1.21583c0,0.12249 0.08064,0.24496 0.24197,0.33757l23.13061,13.35619c0.32263,0.18521 0.84242,0.18521 1.16505,-0.00299l13.65167,-7.93348c0.16131,-0.09261 0.23899,-0.2121 0.23899,-0.33458z" class="st10"/>
  <polygon fill="#e4f9f5" id="svg_17" points="27.37835,28.04502 26.94458,28.2971 25.89743,27.69254 26.33121,27.44045       " class="st7"/>
  <polygon fill="#e4f9f5" id="svg_19" points="21.66895,29.7343 20.7096,30.29181 18.25479,28.87452 19.21413,28.31701       " class="st7"/>
  <polygon fill="#e4f9f5" id="svg_21" points="21.46901,28.21973 20.50966,28.77724 19.46252,28.17267 20.42186,27.61516       " class="st7"/>
  <polygon fill="#e4f9f5" id="svg_23" points="22.87667,29.03244 21.91733,29.58995 20.87019,28.98538 21.82953,28.42788       " class="st7"/>
  <polygon fill="#e4f9f5" id="svg_25" points="24.0844,28.33059 23.12506,28.8881 20.67025,27.47081 21.62959,26.9133       " class="st7"/>
  <polygon fill="#e4f9f5" id="svg_27" points="25.49026,29.14226 24.53092,29.69977 23.48377,29.0952 24.44312,28.53769       " class="st7"/>
  <polygon fill="#e4f9f5" id="svg_29" points="27.21976,28.74374 26.26222,29.3002 25.21508,28.69563 26.17262,28.13917       " class="st7"/>
  <polygon fill="#e4f9f5" id="svg_31" points="25.81391,27.93207 24.85637,28.48853 23.80922,27.88396 24.76676,27.32749       " class="st7"/>
  <polygon fill="#e4f9f5" id="svg_33" points="25.9725,27.23335 25.53872,27.48543 24.49158,26.88086 24.92535,26.62878       " class="st7"/>
  <polygon fill="#e4f9f5" id="svg_35" points="24.40624,27.11935 23.4487,27.67581 21.87798,26.76896 22.83552,26.21249       " class="st7"/>
  <polygon fill="#e4f9f5" id="svg_37" points="24.56483,26.42063 24.13105,26.67272 23.08391,26.06815 23.51768,25.81606       " class="st7"/>
  <polygon fill="#e4f9f5" id="svg_39" points="33.0054,31.2938 32.57162,31.54588 31.52448,30.94131 31.95825,30.68923       " class="st7"/>
  <polygon fill="#e4f9f5" id="svg_41" points="32.84681,31.99251 31.88927,32.54897 30.84212,31.94441 31.79966,31.38794       " class="st7"/>
  <polygon fill="#e4f9f5" id="svg_43" points="31.44095,31.18084 30.48341,31.7373 29.43627,31.13273 30.39381,30.57627       " class="st7"/>
  <polygon fill="#e4f9f5" id="svg_45" points="27.09606,31.46851 26.13671,32.02602 25.08957,31.42144 26.04891,30.86393       " class="st7"/>
  <polygon fill="#e4f9f5" id="svg_47" points="28.50372,32.28122 27.54438,32.83873 26.49723,32.23416 27.45658,31.67665       " class="st7"/>
  <polygon fill="#e4f9f5" id="svg_50" points="28.78602,28.85774 28.35224,29.10982 27.3051,28.50525 27.73888,28.25317        " class="st7"/>
  <polygon fill="#e4f9f5" id="svg_52" points="30.19188,29.66941 29.7581,29.92149 28.71095,29.31692 29.14473,29.06484        " class="st7"/>
  <polygon fill="#e4f9f5" id="svg_54" points="28.62743,29.55645 27.66989,30.11292 26.62274,29.50835 27.58029,28.95188        " class="st7"/>
  <polygon fill="#e4f9f5" id="svg_56" points="26.89793,29.95498 25.93859,30.51249 24.89144,29.90792 25.85078,29.35041        " class="st7"/>
  <polygon fill="#e4f9f5" id="svg_58" points="30.03329,30.36812 29.07574,30.92459 28.0286,30.32002 28.98614,29.76355        " class="st7"/>
  <polygon fill="#e4f9f5" id="svg_60" points="25.6902,30.65683 24.73086,31.21434 23.68371,30.60977 24.64305,30.05226        " class="st7"/>
  <polygon fill="#e4f9f5" id="svg_62" points="28.30379,30.76665 27.34444,31.32416 26.29729,30.71959 27.25664,30.16208        " class="st7"/>
  <polygon fill="#e4f9f5" id="svg_64" points="28.70185,33.79475 27.7443,34.35121 21.07011,30.49787 22.02766,29.9414        " class="st7"/>
  <polygon fill="#e4f9f5" id="svg_66" points="31.59954,30.48213 31.16577,30.73421 30.11862,30.12964 30.5524,29.87756       " class="st7"/>
  <polygon fill="#e4f9f5" id="svg_68" points="34.41307,32.10651 33.97929,32.3586 32.93033,31.75298 33.36411,31.5009       " class="st7"/>
  <polygon fill="#e4f9f5" id="svg_70" points="37.22478,33.72986 36.791,33.98194 35.74386,33.37737 36.17763,33.12529       " class="st7"/>
  <polygon fill="#e4f9f5" id="svg_73" points="29.71145,31.57937 28.75211,32.13688 27.70496,31.5323 28.6643,30.97479        " class="st7"/>
  <polygon fill="#e4f9f5" id="svg_75" points="31.11731,32.39104 30.15796,32.94855 29.11082,32.34398 30.07016,31.78647        " class="st7"/>
  <polygon fill="#e4f9f5" id="svg_77" points="32.52497,33.20375 31.56563,33.76126 30.51667,33.15565 31.47602,32.59814       " class="st7"/>
  <polygon fill="#e4f9f5" id="svg_79" points="34.25267,32.80418 33.29512,33.36065 32.24979,32.75712 33.20733,32.20066       " class="st7"/>
  <polygon fill="#e4f9f5" id="svg_81" points="33.93083,34.01543 32.97149,34.57293 31.92434,33.96836 32.88369,33.41086       " class="st7"/>
  <polygon fill="#e4f9f5" id="svg_83" points="32.92123,36.23081 31.96188,36.78832 30.91474,36.18375 31.87408,35.62624       " class="st7"/>
  <polygon fill="#e4f9f5" id="svg_85" points="34.12896,35.52895 33.16961,36.08646 32.12247,35.48189 33.08181,34.92438       " class="st7"/>
  <polygon fill="#e4f9f5" id="svg_87" points="36.74435,35.63981 35.78501,36.19732 33.3302,34.78004 34.28954,34.22253       " class="st7"/>
  <polygon fill="#e4f9f5" id="svg_90" points="38.63244,34.54257 38.19867,34.79465 37.15152,34.19009 37.5853,33.938        " class="st7"/>
  <polygon fill="#e4f9f5" id="svg_92" points="37.95028,34.939 36.99274,35.49546 35.0615,34.38047 36.01904,33.824        " class="st7"/>
  <polygon fill="#e4f9f5" id="svg_94" points="35.66033,33.6169 34.70279,34.17336 33.65564,33.56879 34.61319,33.01233       " class="st7"/>
  <polygon fill="#e4f9f5" id="svg_96" points="35.81892,32.91819 35.38515,33.17027 34.338,32.5657 34.77178,32.31362       " class="st7"/>
  <polygon fill="#e4f9f5" id="svg_98" points="40.76807,37.96291 39.80873,38.52042 38.76158,37.91585 39.72092,37.35834       " class="st7"/>
  <polygon fill="#e4f9f5" id="svg_100" points="43.5816,39.5873 42.62225,40.14481 41.5751,39.54023 42.53445,38.98273       " class="st7"/>
  <polygon fill="#e4f9f5" id="svg_102" points="36.94494,38.5539 35.9856,39.11141 34.93846,38.50684 35.8978,37.94933       " class="st7"/>
  <polygon fill="#e4f9f5" id="svg_105" points="41.24849,36.05295 40.81472,36.30503 39.76757,35.70047 40.20135,35.44838        " class="st7"/>
  <polygon fill="#e4f9f5" id="svg_107" points="40.56633,36.44938 39.60879,37.00584 38.56165,36.40128 39.51919,35.84481        " class="st7"/>
  <polygon fill="#e4f9f5" id="svg_109" points="42.65616,36.86567 42.22239,37.11775 41.17524,36.51318 41.60902,36.2611        " class="st7"/>
  <polygon fill="#e4f9f5" id="svg_111" points="39.3604,37.15019 38.40106,37.7077 37.35392,37.10313 38.31326,36.54562        " class="st7"/>
  <polygon fill="#e4f9f5" id="svg_113" points="41.974,37.2621 41.01646,37.81856 39.96931,37.21399 40.92685,36.65753        " class="st7"/>
  <polygon fill="#e4f9f5" id="svg_115" points="38.15267,37.85205 37.19333,38.40956 36.14619,37.80499 37.10553,37.24748        " class="st7"/>
  <polygon fill="#e4f9f5" id="svg_117" points="43.37986,38.07377 42.42231,38.63023 41.37517,38.02567 42.33271,37.4692        " class="st7"/>
  <polygon fill="#e4f9f5" id="svg_119" points="39.56034,38.66476 38.601,39.22227 37.55385,38.6177 38.5132,38.0602        " class="st7"/>
  <polygon fill="#e4f9f5" id="svg_121" points="42.17393,38.77458 41.21458,39.33209 40.16744,38.72752 41.12678,38.17001        " class="st7"/>
  <polygon fill="#e4f9f5" id="svg_123" points="40.9662,39.47644 40.00686,40.03394 38.95971,39.42937 39.91905,38.87187        " class="st7"/>
  <polygon fill="#e4f9f5" id="svg_125" points="24.28253,29.84412 23.32319,30.40163 22.27604,29.79706 23.23539,29.23955       " class="st7"/>
  <polygon fill="#e4f9f5" id="svg_127" points="30.10951,34.60746 29.15017,35.16497 28.10121,34.55936 29.06056,34.00185       " class="st7"/>
  <polygon fill="#e4f9f5" id="svg_129" points="31.31724,33.90561 30.3579,34.46312 29.30894,33.8575 30.26829,33.3       " class="st7"/>
  <polygon fill="#e4f9f5" id="svg_131" points="31.51537,35.41914 30.55603,35.97665 29.50888,35.37208 30.46823,34.81457       " class="st7"/>
  <polygon fill="#e4f9f5" id="svg_133" points="32.7231,34.71728 31.76376,35.27479 30.71661,34.67022 31.67596,34.11271       " class="st7"/>
  <polygon fill="#e4f9f5" id="svg_135" points="29.90958,33.09289 28.95023,33.6504 27.90309,33.04583 28.86243,32.48832       " class="st7"/>
  <polygon fill="#e4f9f5" id="svg_137" points="34.32889,37.04353 33.36955,37.60103 32.3224,36.99646 33.28175,36.43896       " class="st7"/>
  <polygon fill="#e4f9f5" id="svg_139" points="44.78753,38.88649 43.82998,39.44295 42.78283,38.83838 43.74038,38.28192       " class="st7"/>
  <polygon fill="#e4f9f5" id="svg_141" points="45.46969,38.49006 45.03591,38.74214 43.98876,38.13757 44.42254,37.88549       " class="st7"/>
  <polygon fill="#e4f9f5" id="svg_143" points="44.06202,37.67734 43.62824,37.92942 42.5811,37.32486 43.01487,37.07277       " class="st7"/>
  <polygon fill="#e4f9f5" id="svg_145" points="38.35261,39.36662 37.39326,39.92413 36.34612,39.31956 37.30547,38.76205       " class="st7"/>
  <polygon fill="#e4f9f5" id="svg_147" points="42.37387,40.28915 40.20679,41.54852 39.15965,40.94395 41.32672,39.68458       " class="st7"/>
  <polygon fill="#e4f9f5" id="svg_149" points="39.75847,40.17829 38.79913,40.7358 37.75198,40.13123 38.71132,39.57372       " class="st7"/>
  <path fill="#3f3c55" id="svg_152" d="m47.61214,19.98635c0.32232,0.18609 0.58277,0.6372 0.58172,1.00758l-0.04124,16.27343c-0.00105,0.36819 -0.2632,0.51977 -0.58553,0.33367l-22.79728,-13.16078c-0.32232,-0.18609 -0.58277,-0.63939 -0.58172,-1.00758l0.04124,-16.27343c0.00105,-0.37039 0.2632,-0.51977 0.58553,-0.33367l22.79728,13.16078z" class="st10"/>
  <path fill="#3f3c55" id="svg_154" d="m48.80607,20.63923l-0.04183,16.2728c0,0.18222 -0.06573,0.31366 -0.17028,0.37341l-0.61143,0.35557c0.10457,-0.05973 0.17028,-0.19117 0.17028,-0.37341l0.04182,-16.27278c0,-0.37044 -0.25989,-0.82151 -0.58252,-1.00971l-22.79738,-13.15929c-0.16133,-0.09261 -0.3077,-0.10156 -0.41524,-0.04183l0.61143,-0.35557c0.10455,-0.05975 0.25391,-0.0508 0.41522,0.04181l22.79741,13.16229c0.32262,0.18521 0.58252,0.63629 0.58252,1.00671z" class="st19"/>
  <polygon fill="#e4f9f5" id="svg_156" points="47.37105,20.79548 47.33138,36.51662 25.01091,23.63113 25.05058,7.91      " class="st21"/>
  <path fill="#11999e" id="svg_158" d="m44.76154,16.10297l-0.03654,12.39758c-0.00059,0.20351 -0.07235,0.34658 -0.18801,0.41376l0.79913,-0.4644c0.11566,-0.06719 0.18742,-0.21025 0.18801,-0.41376l0.03653,-12.39758l-0.79912,0.4644z" class="st5"/>
  <path fill="#11999e" id="svg_160" d="m44.76155,16.10296l-0.03655,12.39759c-0.00116,0.40926 -0.29022,0.57399 -0.64494,0.36919l-16.62408,-9.59792c-0.35617,-0.20563 -0.64335,-0.70305 -0.64219,-1.11232l0.03655,-12.39759l17.91121,10.34105z" class="st8"/>
  <polygon fill="#ffffff" id="svg_161" points="27.54744,6.97433 27.51456,18.49566 44.02473,28.0281 44.05944,16.50723     " class="st3"/>
  <path fill="#3f3c55" id="svg_164" d="m45.56818,13.66178l-0.00507,1.97769l-0.80077,0.46122l0.00507,-1.97264c0,-0.41052 -0.28889,-0.90718 -0.64366,-1.10989l-16.62343,-9.59904c-0.17737,-0.10137 -0.33956,-0.11151 -0.45614,-0.04563l0.7957,-0.46626c0.12166,-0.06589 0.28381,-0.05577 0.46122,0.0456l16.62343,9.59902c0.35477,0.20782 0.64365,0.70449 0.64365,1.10993z" class="st19"/>
  <path fill="#3f3c55" id="svg_166" d="m44.12608,13.01721c0.35472,0.2048 0.6419,0.70222 0.64075,1.10982l-0.00528,1.97594l-17.91122,-10.34105l0.00528,-1.97594c0.00115,-0.4076 0.29022,-0.57233 0.64638,-0.36669l16.62409,9.59792z" class="st20"/>
  <path fill="#e4f9f5" id="svg_169" d="m43.54557,13.32846c-0.24413,-0.14095 -0.4429,-0.02768 -0.44369,0.25285c-0.0008,0.28053 0.19668,0.6211 0.44081,0.76205c0.24286,0.14021 0.44162,0.02841 0.44241,-0.25212c0.0008,-0.28053 -0.19667,-0.62257 -0.43953,-0.76278z" class="st1"/>
  <path fill="#e4f9f5" id="svg_171" d="m40.71055,11.69199c-0.24413,-0.14095 -0.4429,-0.02768 -0.4437,0.25285c-0.00079,0.28053 0.19669,0.6211 0.44082,0.76205c0.24286,0.14021 0.44162,0.02841 0.44241,-0.25212c0.0008,-0.28053 -0.19667,-0.62257 -0.43953,-0.76278z" class="st1"/>
  <path fill="#e4f9f5" id="svg_173" d="m42.12806,12.51006c-0.24413,-0.14095 -0.4429,-0.02768 -0.44369,0.25285s0.19668,0.6211 0.44081,0.76205c0.24414,0.14095 0.44162,0.02841 0.44241,-0.25212c0.0008,-0.28052 -0.19539,-0.62183 -0.43953,-0.76278z" class="st1"/>
  <path fill="#e4f9f5" id="svg_177" d="m30.55533,13.15458l0.67448,1.16824c-0.80102,0.25046 -1.39467,0.9142 -1.65561,1.92579l-0.13794,-0.07964c0.03513,-1.35165 0.44991,-2.37328 1.11907,-3.01439z" class="st21"/>
  <path fill="#30e3ca" id="svg_179" d="m34.94025,13.0981l-0.00669,2.35958c-0.28869,-0.23258 -0.58529,-0.43976 -0.8898,-0.61558c-1.05925,-0.61156 -2.0364,-0.76234 -2.81394,-0.51929l-0.67448,-1.16824c1.00376,-0.96315 2.58902,-1.05738 4.38491,-0.05647z" class="st1"/>
  <path fill="#3f3c55" id="svg_182" d="m39.34763,17.99716c0.75693,1.5064 1.22158,3.12265 1.25124,4.61654l-2.10811,-1.21712c-0.15933,-0.8139 -0.44633,-1.6446 -0.82991,-2.43521l1.68678,-0.96421z" class="st2"/>
  <path fill="#11999e" id="svg_184" d="m35.03918,13.14923c1.74115,1.00525 3.2897,2.82192 4.30845,4.84793l-1.68678,0.96422c-0.66609,-1.3641 -1.62447,-2.61836 -2.72728,-3.5037l0.00669,-2.35958c0.03123,0.01804 0.06508,0.03159 0.09892,0.05113z" class="st6"/>
  <path fill="#3f3c55" id="svg_186" d="m38.53792,16.74378l-3.98383,2.65817c0.1095,0.38205 0.05022,0.72442 -0.17533,0.85296c-0.15079,0.08592 -0.34787,0.05878 -0.54501,-0.05503c-0.1978,-0.1142 -0.39568,-0.31565 -0.547,-0.57775c-0.30012,-0.51983 -0.29852,-1.08264 0.00356,-1.25479c0.15067,-0.08586 0.34855,-0.05841 0.54563,0.05537c0.09532,0.05503 0.19042,0.13022 0.27996,0.22259l4.42202,-1.90152z" class="st40"/>
 </g>
</svg>