<svg width="512" height="512" xmlns="http://www.w3.org/2000/svg">

 <g>
  <title>background</title>
  <rect fill="none" id="canvas_background" height="402" width="582" y="-1" x="-1"/>
 </g>
 <g>
  <title>Layer 1</title>
  <path id="svg_1" fill="#e4f9f5" d="m296.279,338.04c27.33,14.465 45.95,43.19 45.95,76.263c0,47.625 -38.605,86.229 -86.229,86.229c-47.623,0 -86.229,-38.604 -86.229,-86.229c0,-33.072 18.619,-61.796 45.947,-76.26l0.003,0.005l0,-286.302c0,-22.245 18.035,-40.278 40.279,-40.278l0,0c22.246,0 40.278,18.033 40.278,40.278l0,286.302"/>
  <path id="svg_2" fill="#FFFFFF" d="m256,355.217c34.604,4.177 52.5,51.283 54,68.449c5.525,63.234 -32,76.866 -54,76.866c-47.623,0 -86.229,-38.604 -86.229,-86.229c-0.001,-33.072 18.618,-61.796 45.947,-76.26l0,0l0.003,-286.297c0,-22.245 -1.157,-35.421 21.087,-35.421l0,0c22.246,0 21.086,13.176 21.086,35.421l0,286.302"/>
  <path id="svg_3" stroke-width="13" stroke-miterlimit="10" stroke-linejoin="round" stroke-linecap="round" stroke="#3f3c55" fill="none" d="m296.279,338.04c27.33,14.465 45.95,43.19 45.95,76.263c0,47.625 -38.605,86.229 -86.229,86.229c-47.623,0 -86.229,-38.604 -86.229,-86.229c0,-33.072 18.619,-61.796 45.947,-76.26l0.003,0.005l0,-286.302c0,-22.245 18.035,-40.278 40.279,-40.278l0,0c22.246,0 40.278,18.033 40.278,40.278l0,286.302"/>
  <line id="svg_4" y2="126" y1="126" x2="240.16" x1="215.721" stroke-width="13" stroke-miterlimit="10" stroke-linejoin="round" stroke-linecap="round" stroke="#3f3c55" fill="none"/>
  <line id="svg_5" y2="160.5" y1="160.5" x2="240.16" x1="215.721" stroke-width="13" stroke-miterlimit="10" stroke-linejoin="round" stroke-linecap="round" stroke="#3f3c55" fill="none"/>
  <line id="svg_6" y2="195" y1="195" x2="240.16" x1="215.721" stroke-width="13" stroke-miterlimit="10" stroke-linejoin="round" stroke-linecap="round" stroke="#3f3c55" fill="none"/>
  <line id="svg_7" y2="229.5" y1="229.5" x2="240.16" x1="215.721" stroke-width="13" stroke-miterlimit="10" stroke-linejoin="round" stroke-linecap="round" stroke="#3f3c55" fill="none"/>
  <line id="svg_8" y2="264" y1="264" x2="240.16" x1="215.721" stroke-width="13" stroke-miterlimit="10" stroke-linejoin="round" stroke-linecap="round" stroke="#3f3c55" fill="none"/>
 </g>
</svg>